<?xml version="1.0" encoding="UTF-8" standalone="no"?>
<!-- Created with Inkscape (http://www.inkscape.org/) -->

<svg
   xmlns:dc="http://purl.org/dc/elements/1.1/"
   xmlns:cc="http://creativecommons.org/ns#"
   xmlns:rdf="http://www.w3.org/1999/02/22-rdf-syntax-ns#"
   xmlns:svg="http://www.w3.org/2000/svg"
   xmlns="http://www.w3.org/2000/svg"
   version="1.2"
   width="744.09448"
   height="1052.3622"
   id="svg2">
  <defs
     id="defs4" />
  <metadata
     id="metadata7">
    <rdf:RDF>
      <cc:Work
         rdf:about="">
        <dc:format>image/svg+xml</dc:format>
        <dc:type
           rdf:resource="http://purl.org/dc/dcmitype/StillImage" />
        <dc:title></dc:title>
      </cc:Work>
    </rdf:RDF>
  </metadata>
  <g
     id="layer1">
    <g
       transform="matrix(0.9118917,-0.4104309,0.4104309,0.9118917,-107.7961,191.48017)"
       id="layer1-4">
      <path
         d="m 434.95575,305.11223 c -0.0743,0.004 -0.12302,0.004 -0.14928,0.0299 0.68813,4.16897 6.5512,6.52291 8.50878,10.30009 2.75863,2.85146 7.35002,8.57409 10.21052,12.74824 2.86051,4.17413 5.86993,8.28506 6.6876,9.13573 0.81767,0.85067 3.21243,3.67578 5.31425,6.26962 4.5148,5.57171 15.50483,16.34628 22.83933,22.39151 2.86885,2.36454 6.32693,5.26648 7.70268,6.44875 3.64287,3.13054 5.20871,2.92479 3.49308,-0.47768 -0.46006,-0.91242 -1.57205,-4.2514 -2.47799,-7.40413 -0.90595,-3.15272 -1.98216,-6.38971 -2.38843,-7.19514 -1.89719,-5.6198 -3.94345,-10.78042 -7.25485,-15.79347 -1.74694,-3.30213 -3.72048,-6.54709 -6.1502,-9.16559 -2.89832,-4.48091 -7.4818,-8.02157 -11.46445,-11.07634 -9.56172,-6.86823 -20.0092,-10.95438 -30.93014,-14.95752 -1.78107,-0.76419 -3.4207,-1.27882 -3.9409,-1.25393 z m -277.9831,3.28409 c -6.99666,0.26168 -13.66732,5.73962 -20.09265,8.06095 -9.1074,4.30344 -14.1475,7.78832 -20.48076,14.12158 -5.47145,5.47144 -14.06549,18.67595 -14.95753,22.9886 -0.73197,3.5388 -3.318145,12.42181 -4.746998,16.24132 -0.687991,1.83908 -1.52245,4.3111 -1.851031,5.49338 -0.867191,3.12026 0.537941,2.65163 5.314249,-1.73162 2.32235,-2.13122 5.74417,-5.01329 7.58326,-6.41889 1.83909,-1.4056 4.23203,-3.4174 5.31425,-4.47831 1.08222,-1.06088 4.09951,-3.93093 6.71746,-6.35918 2.61793,-2.42825 6.67374,-7.08333 9.0163,-10.3598 2.34257,-3.27649 6.74135,-9.34414 9.7627,-13.49462 3.96358,-5.47533 7.61471,-11.10329 12.65867,-15.70391 3.94005,-4.18877 7.16442,-7.93555 7.16528,-8.32964 -0.46938,-0.0313 -0.93676,-0.0474 -1.4032,-0.0299 z m 327.78181,21.16744 4.17974,4.59772 c 2.30515,2.53078 4.47731,4.81269 4.80672,5.07542 4.21281,6.10575 6.73534,12.79815 8.03108,20.06278 0.75606,2.36455 2.08273,7.09363 2.95568,10.50909 0.87295,3.41545 2.36973,9.00436 3.3438,12.41981 2.9085,10.1982 2.97712,10.50909 2.32872,10.50909 -0.34297,0 -1.97947,-1.54861 -3.64235,-3.46322 -6.20553,-7.14493 -7.89192,-8.62249 -19.2567,-16.53987 -3.67818,-2.56244 -7.48629,-5.35758 -8.44906,-6.23976 -0.96276,-0.88219 -3.11235,-2.41484 -4.77686,-3.40351 -3.16705,-1.88114 -5.06304,-3.99681 -10.71806,-11.91228 l -3.40352,-4.77686 0.65682,4.77686 c 0.77272,5.59399 2.31892,10.08997 6.4189,18.62974 3.04602,6.34448 14.75667,19.1878 23.1379,25.37703 14.94892,11.03926 28.42556,24.12835 31.49738,30.60173 0.88819,1.87171 1.84151,3.20404 2.08987,2.95568 0.24838,-0.24837 0.40308,-12.84048 0.35827,-28.00431 -0.086,-29.1272 -0.54558,-32.65121 -5.37396,-42.39459 -6.37375,-12.86182 -20.81128,-25.81665 -31.37797,-28.15359 l -2.8064,-0.62696 z m -378.20748,4.00062 c -3.29859,0.14312 -12.629539,5.50672 -18.122198,10.92705 -10.441335,10.30385 -14.298798,17.06592 -16.450294,28.78055 -2.401793,13.0775 -2.572145,17.6956 -1.164358,30.93014 0.754571,7.09363 1.138229,16.22936 0.865805,20.30163 -0.314203,4.69689 -0.137382,7.40413 0.477685,7.40413 0.53327,0 1.24525,-0.75236 1.582333,-1.6719 2.268959,-6.18955 13.008762,-18.11334 22.958759,-25.49646 16.594878,-12.31378 28.956008,-27.00617 34.214218,-40.66299 3.32161,-8.62695 3.98714,-12.63813 2.06002,-12.24068 -0.81848,0.1688 -2.1915,1.5883 -3.0751,3.16467 -2.21121,3.94488 -8.54964,9.83406 -19.28655,17.94305 -9.92059,8.02069 -20.882992,14.86612 -27.317637,26.39213 -2.79147,6.68093 -2.107892,2.08627 0.985227,-6.62789 1.763242,-4.96751 3.938593,-12.48551 4.836565,-16.68914 2.497703,-11.69237 4.274568,-18.68404 5.971068,-23.40659 2.121134,-5.90459 7.274477,-13.89956 10.210527,-15.82333 1.33821,-0.87682 2.44814,-1.98311 2.44814,-2.44813 0,-0.586 -0.433,-0.80927 -1.19421,-0.77624 z m 419.88554,30.51215 c -1.17784,0.20855 -0.74498,1.99942 1.28378,5.25455 0.65498,1.0509 1.93386,4.49844 2.83625,7.64297 1.42553,4.96744 1.53557,7.84953 0.83595,21.97353 -0.44287,8.94092 -0.84153,25.42972 -0.8658,36.66236 -0.0275,12.72614 -0.31722,19.20707 -0.8061,17.19668 -2.10015,-8.63648 -3.23861,-11.34615 -7.25485,-17.43552 -2.38611,-3.61781 -7.76828,-9.63665 -11.94213,-13.3752 -11.03459,-9.88377 -21.86234,-20.7167 -23.85442,-23.85442 -0.96037,-1.51269 -2.08551,-2.36446 -2.5377,-1.91074 -0.83825,0.84105 1.58505,10.96886 3.85133,16.09203 2.5459,7.13477 5.10905,13.80713 9.55372,19.97323 7.08662,11.18893 16.01596,21.15612 22.9289,32.4229 3.98478,5.90432 7.97766,14.36464 10.12096,21.40628 0.99822,3.2796 2.04361,5.96629 2.32872,5.97107 5.78148,-12.26767 6.93379,-27.78006 11.82272,-39.6479 7.02112,-16.01985 5.58997,-48.8586 -2.83627,-65.44291 -3.83762,-8.33762 -8.6337,-16.33497 -15.19636,-22.92891 -0.0927,0 -0.19018,-0.0139 -0.2687,0 z m -458.458648,4.20961 c -1.26749,0.28355 -5.285508,4.90793 -8.628194,10.74793 -3.355464,6.08111 -6.698402,12.29864 -9.404433,18.62973 -0.176037,1.22649 -0.806285,3.74385 -1.403201,5.58295 -2.916536,17.58603 -3.212098,36.36062 3.702063,53.02308 1.058513,3.15273 3.256706,9.38652 4.896276,13.85289 1.63956,4.46635 3.178099,9.19544 3.403509,10.50908 0.380323,2.21635 1.427372,6.53868 1.851031,7.64297 0.100802,0.26272 0.512633,1.939 0.925516,3.70206 l 0.746383,3.19452 1.134503,-2.71684 c 0.618078,-1.50032 1.67146,-4.78879 2.358573,-7.28471 2.336434,-7.65922 9.447895,-18.83297 14.002155,-25.04862 4.159724,-6.14813 8.121829,-12.22596 8.807327,-13.49462 4.226937,-5.77012 8.61995,-11.40911 11.64358,-17.94306 0.001,-0.46097 1.23971,-3.47038 2.74669,-6.6876 4.66366,-9.95621 7.36787,-21.61527 5.0157,-21.61527 -0.46232,0 -2.62473,2.36455 -4.80671,5.25454 -2.18197,2.89 -4.29134,5.25455 -4.68729,5.25455 -15.4805,11.6714 -30.23594,27.62636 -34.094798,47.14158 -1.245594,7.47417 -1.440174,2.4691 -0.358264,-8.92675 1.119025,-11.78681 0.617905,-21.30541 -2.149585,-40.87196 -2.03772,-14.40696 -0.751036,-27.79642 3.52293,-36.36381 1.338348,-2.68278 1.440163,-3.73116 0.776239,-3.58264 z m 487.896008,65.71161 c -0.46678,0.003 -0.71718,2.53591 -1.04493,9.37458 -1.16682,13.29114 -4.65448,25.74429 -9.97168,37.91629 -5.54922,11.6013 -10.275,23.70317 -12.68852,36.3638 -0.86909,6.00783 -1.68884,3.78409 -1.9406,-5.3441 -0.24193,-8.77157 -1.17304,-12.72946 -4.59773,-19.55525 -2.10731,-4.5126 -3.46923,-9.29364 -6.53832,-13.3752 -5.62482,-7.73771 -9.97964,-16.59411 -14.36042,-25.01877 -1.2924,-2.62728 -2.37199,-5.31425 -2.38843,-5.97107 -0.052,-2.08002 -1.69872,-1.28647 -2.29885,1.10464 -1.05637,4.20889 0.83591,18.50298 4.77685,35.91598 2.37428,10.49075 7.70779,29.36779 10.80763,38.21484 2.84972,8.13316 3.91515,16.72218 3.28409,26.51154 -0.67599,10.48648 0.0444,12.0782 3.19453,7.16529 0.92655,-1.445 7.56906,-10.40335 14.74853,-19.91352 7.17949,-9.51016 13.97269,-19.18329 15.1068,-21.49585 11.86294,-24.18945 13.81545,-59.97492 4.44845,-81.11696 -0.21955,-0.49556 -0.3818,-0.77705 -0.5374,-0.77624 z m -515.840608,4.1499 c -2.057242,2.05723 -5.850024,23.06127 -5.851647,32.39304 -0.0016,9.04558 1.629998,22.30402 3.463219,28.18344 5.261811,18.13189 13.708522,34.33707 27.287783,48.03725 4.040541,4.99268 8.268755,10.83807 9.404433,13.01693 3.587295,6.88236 4.269315,5.29105 4.269315,-10.12096 0.08653,-10.08372 0.975965,-19.4859 4.776855,-28.89997 0.826166,-2.89 2.114273,-7.40413 2.866112,-10.0314 0.751839,-2.62727 2.064815,-7.35636 2.895968,-10.50908 0.831163,-3.15272 2.137146,-7.92519 2.895968,-10.59865 1.506586,-5.961 1.322084,-12.08914 2.776547,-18.06248 1.490561,-6.17313 1.975908,-23.40659 0.656818,-23.40659 -7.163904,7.93306 -22.759094,45.50816 -24.302249,48.24624 -3.802749,10.38018 -4.462557,14.19927 -4.060327,24.21268 0.441553,10.99221 -0.702369,12.02783 -2.269005,2.06002 -1.982854,-12.61602 -4.81337,-21.99122 -9.10588,-30.06433 -1.348191,-2.53561 -2.448139,-4.98789 -2.448139,-5.43367 0,-0.4458 -1.28975,-3.53036 -2.866113,-6.86674 -1.576362,-3.33637 -2.866112,-6.382 -2.866112,-6.77716 0,-0.39516 -0.605753,-2.07614 -1.343491,-3.73192 -3.071541,-6.89377 -4.478781,-13.10077 -5.045552,-22.36165 -0.330067,-5.39318 -0.839039,-9.58047 -1.134503,-9.285 z m 464.190878,66.36842 c -4.00006,7.00906 -5.10636,16.07197 -7.58327,23.67528 -1.38172,6.98961 -4.83656,38.67947 -4.83656,44.3949 0,9.73106 -5.60297,36.50698 -8.83718,42.27517 -2.80462,5.00197 -3.44329,6.60375 -2.98554,7.34441 10.26612,-5.91645 20.30863,-12.64012 29.97477,-19.28655 3.00744,-1.66785 5.57446,-4.0518 8.59833,-5.73223 1.99032,-1.57635 3.84439,-2.86611 4.12005,-2.86611 15.96919,-12.64477 29.67327,-28.23003 36.30409,-47.76854 3.84781,-11.57511 5.87828,-30.54431 3.85134,-35.82642 -0.82599,-2.1525 -2.21899,9.5e-4 -2.23915,3.46322 -0.0176,3.01811 -4.772,15.17237 -6.6876,17.07725 -0.2642,0.26273 -1.76891,2.37996 -3.3438,4.71715 -1.57489,2.33718 -7.64777,9.21586 -13.49461,15.28593 -5.84685,6.07008 -12.24923,12.98111 -14.21114,15.34565 -3.55878,3.86764 -6.66452,7.73058 -9.37458,12.27055 -2.26543,2.98144 -5.92085,8.52038 -6.32933,9.04617 -3.09397,3.98243 -4.73756,6.4759 -4.92614,6.59803 0.0652,-0.2714 1.1686,-2.32512 3.3438,-6.71745 2.41464,-4.87579 4.13987,-10.77364 5.37397,-19.37612 1.22999,-8.57394 0.66946,-15.70962 -2.41829,-30.95999 -2.43543,-12.02859 -3.34379,-19.22592 -3.34379,-26.15328 0,-3.90728 -0.40773,-6.80702 -0.95537,-6.80702 z m -410.839381,6.92644 c -0.575642,-0.0487 -0.918953,1.00932 -0.925516,3.25424 -0.01162,3.98324 -3.01108,21.13163 -4.896276,28.03416 -0.698299,2.55677 -1.188481,10.49435 -1.194214,19.58511 0.06234,10.0185 0.193796,20.41194 5.762082,29.16866 1.390523,2.10124 2.28241,4.07678 2.000308,4.35889 -4.625043,-4.09615 -6.524265,-10.2149 -10.688213,-14.74855 -1.547692,-2.27825 -5.41854,-7.00733 -8.598339,-10.50907 -6.753851,-7.43766 -22.007113,-23.56088 -25.138198,-26.60112 -1.191768,-1.15718 -2.149585,-2.40311 -2.149585,-2.74669 0,-0.34356 -1.223438,-2.17547 -2.716836,-4.09018 -3.568636,-4.57535 -7.93578,-14.0265 -8.299785,-17.94306 -0.159236,-1.71331 -0.761983,-3.88832 -1.313636,-4.83657 -1.576267,-2.70951 -1.301624,16.91749 0.358264,25.97415 1.75037,9.55034 3.154406,13.47521 8.329641,23.22746 4.863669,9.16513 13.071156,19.29109 20.361344,25.10834 2.881007,2.29892 5.25454,4.52643 5.25454,4.92614 9.945239,6.93182 19.99221,14.3046 29.944909,20.80916 0.613031,0.0199 4.758941,2.56681 9.225301,5.64267 10.86287,7.48093 10.92286,7.46525 7.28471,-0.32841 -1.25088,-2.67964 -2.93959,-6.37114 -3.73192,-8.21022 -2.83014,-6.56901 -5.87743,-23.39429 -6.92644,-38.21484 -1.51273,-21.3719 -5.366322,-45.7798 -8.896896,-56.30718 -1.200248,-3.57887 -2.305134,-5.49041 -3.045245,-5.55309 z M 486.0681,559.65889 c -0.10543,-0.0242 -0.20678,-9.7e-4 -0.32842,0.0299 -0.72978,0.18706 -1.82068,1.40854 -3.3438,3.76177 -1.6353,2.52655 -4.04482,5.84753 -5.37395,7.37426 -6.22652,8.75119 -11.94683,18.2089 -15.79348,28.24316 0,0.55689 -0.43195,1.77457 -0.95537,2.68698 -0.52341,0.91242 -2.65922,6.80105 -4.747,13.1065 -4.55885,13.76849 -6.4303,19.07316 -7.5534,21.28686 -0.46314,0.91287 -1.76266,3.57667 -2.89597,5.94121 -3.53507,7.37564 -7.92093,13.65056 -13.19606,18.92829 -1.73217,1.73301 -3.13482,3.3452 -3.13482,3.58264 0,0.78266 3.90353,0.45306 5.64267,-0.47769 2.08223,-1.11437 13.94514,-3.83592 21.10772,-4.83656 13.44477,-1.8783 18.38531,-3.14116 30.60173,-7.79225 8.32583,-3.16984 24.71306,-14.47024 33.88582,-23.37673 7.94453,-7.71395 15.10477,-17.67216 19.52538,-27.13851 2.77789,-5.94856 7.02312,-20.05568 6.26963,-20.80917 -0.19669,-0.1967 -1.23565,1.29258 -2.32871,3.31394 -3.14782,5.82114 -4.04162,7.01891 -9.61342,13.01693 -4.96385,5.34355 -14.05044,12.95341 -17.19668,14.39027 -0.78819,0.35996 -2.72282,1.4749 -4.29917,2.478 -1.57637,1.00309 -6.0905,3.39627 -10.0314,5.31425 -3.9409,1.91798 -7.81015,3.86223 -8.59834,4.32903 -0.78818,0.46679 -3.73422,1.97146 -6.53831,3.34379 -9.99465,5.55453 -19.78109,11.57373 -28.39244,19.07757 -1.89375,1.83909 -3.69141,3.34379 -4.00061,3.34379 -0.51641,0 2.64002,-3.85314 5.0754,-6.18005 8.31663,-9.86288 14.33871,-21.22913 16.9877,-33.94553 0.82446,-3.9409 2.19135,-11.6794 3.04524,-17.19667 2.11121,-13.64109 4.11925,-22.69845 5.94121,-27.01908 1.04102,-2.46868 1.20637,-3.92876 0.5374,-4.59773 -0.0837,-0.0837 -0.19313,-0.15493 -0.29855,-0.17913 z m -375.13239,3.13481 c -2.36591,0.1098 3.83447,13.39532 3.52293,16.71899 3.22637,14.63621 3.79163,17.77008 3.79163,20.63004 0,6.59385 6.67712,28.56109 9.55371,31.43768 3.07833,5.85922 6.23546,10.9545 11.70329,14.71869 l 6.92645,6.62788 -5.88151,-3.94091 c -3.22814,-2.16939 -6.50797,-4.62708 -7.31456,-5.43367 -9.13732,-5.48995 -17.39787,-12.73877 -27.46692,-16.83841 -30.34571,-13.99022 -42.059293,-22.76862 -51.799013,-38.87166 -2.384625,-3.94259 -2.636452,-4.15768 -2.149585,-1.64204 0.305078,1.57636 0.792863,4.14232 1.074793,5.70237 5.470243,16.0689 14.511088,30.11425 27.198217,41.58849 2.738055,2.36455 5.879028,5.11288 6.98615,6.09049 12.778309,10.16964 27.871458,17.18024 44.066488,19.76424 6.30545,1.08162 13.82899,2.36802 16.71899,2.86611 1.91586,0.3461 23.32678,6.26897 20.95845,2.80641 -2.75346,0 -12.25913,-12.68634 -17.19667,-22.92891 -1.13986,-2.36454 -2.4627,-5.02834 -2.92583,-5.94121 -1.06205,-2.09336 -2.78587,-6.87455 -7.58326,-21.10773 -5.1497,-15.2784 -12.10079,-29.48085 -18.33118,-37.4386 -0.41139,-0.52545 -2.87012,-3.6948 -5.49338,-7.04586 -2.62327,-3.35106 -4.77685,-6.46796 -4.77685,-6.92644 -0.73111,-0.58924 -1.24435,-0.85164 -1.58234,-0.83595 z m 339.36569,51.97815 c -1.54283,0.0522 -9.12062,5.53624 -14.27086,10.41952 -2.87393,2.72495 -6.87737,6.31577 -8.89689,7.97138 -2.01954,1.6556 -10.05187,9.28663 -17.8535,16.95783 -13.03875,12.70762 -27.02134,23.76455 -45.8578,26.36227 -1.32135,0 -2.63511,0.3954 -2.92583,0.8658 -0.68165,1.10294 1.71828,2.0003 5.31425,2.0003 2.7163,0 11.40551,1.80406 19.46568,4.03048 2.10182,0.58057 5.54116,1.38076 7.64297,1.79132 2.10182,0.41056 7.9057,1.60763 12.89751,2.65713 17.64556,3.68165 36.17837,5.18231 53.50077,-0.98523 15.0001,-5.14847 28.47389,-14.57087 38.63282,-26.72053 3.39931,-3.58589 9.90406,-14.64597 8.26993,-14.06187 -0.50969,0.18218 -3.21934,2.478 -6.03078,5.10527 -5.35826,5.00726 -7.48249,6.56157 -11.01662,8.09079 -1.17506,0.50846 -3.97158,1.81454 -6.20991,2.89597 -6.3049,3.0462 -18.698,5.40105 -37.49831,7.13542 -15.20877,1.45459 -30.48584,4.14457 -45.61896,5.13513 8.35541,-2.45755 16.09437,-6.49396 23.04832,-11.76301 3.28183,-2.85801 11.68389,-15.27624 14.56941,-21.5257 0.84914,-1.83909 2.74676,-5.9233 4.23945,-9.07602 1.4927,-3.15273 2.75382,-5.96503 2.77655,-6.23977 0.0228,-0.27474 1.47892,-2.75665 3.25423,-5.52324 1.77533,-2.7666 3.0183,-5.22178 2.77655,-5.46353 -0.0467,-0.0467 -0.10613,-0.0631 -0.20898,-0.0597 z m -303.36015,1.85103 c -0.8636,0.0669 -0.25541,1.65367 1.70176,4.71715 3.99963,6.26048 4.50295,7.19319 10.00154,17.88335 6.77339,13.16858 11.05763,19.67458 16.12188,24.51124 4.73634,4.52348 13.31336,9.32889 18.33119,10.27023 1.87559,0.35187 4.09018,1.70175 4.09018,1.70175 0,0 -4.79307,-0.0697 -7.2847,-0.65681 -4.15542,-0.81265 -32.44711,-3.62577 -47.29087,-4.68729 -18.90231,-1.35175 -34.75673,-7.03244 -45.021857,-16.1816 -5.702141,-5.08223 -7.757058,-5.25811 -4.179748,-0.35826 1.242068,1.70126 3.15431,4.34967 4.239458,5.91136 8.842227,10.83829 20.667797,20.80771 33.557407,26.18313 1.26436,1.14927 6.40477,2.9292 14.27086,4.92614 8.54303,2.16878 23.64814,2.35013 37.19975,0.44783 5.67187,-0.79619 10.70216,-1.68385 11.1659,-1.97045 0.46374,-0.28662 2.87946,-0.9022 5.37396,-1.3435 2.49448,-0.44129 7.76239,-1.72326 11.70329,-2.86611 3.94091,-1.14284 11.64793,-3.03279 17.13697,-4.20961 l 9.97168,-2.14958 -4.71714,-1.19421 c -2.59904,-0.66233 -6.1264,-1.81909 -7.85196,-2.56756 -8.2157,-3.33973 -16.95412,-5.61081 -24.09325,-11.34503 -1.8391,-1.37563 -7.23396,-6.25768 -11.972,-10.8375 -12.64567,-12.22336 -25.11023,-23.59846 -31.64666,-28.87011 -6.17822,-4.98277 -9.69729,-7.40066 -10.80764,-7.31456 z m 180.92338,60.57649 c -5.13893,0.0825 -10.71549,0.57436 -16.62943,1.61219 -1.29919,0.228 -3.9283,0.74614 -5.82178,1.37334 -5.8489,1.9374 -7.44153,1.99264 -11.13605,0.35827 -2.9242,-1.29361 -7.05065,-2.44647 -22.69006,-2.47799 -9.11603,0.15482 -17.98024,0.52351 -26.57126,3.58264 -5.24822,1.04234 -10.12148,3.53035 -15.22622,5.04555 -3.28408,1.33774 -8.59405,3.44658 -11.79286,4.65743 -3.1988,1.21087 -8.59724,3.49668 -12.00185,5.10527 -8.22564,3.88643 -19.45903,6.70401 -29.73592,7.43398 -10.5493,0.74931 -22.22572,-1.46492 -31.91536,-6.03078 -7.46685,-3.51846 -7.94152,-3.65846 -7.94152,-2.32872 8.71794,10.41225 20.32237,17.14747 32.75131,22.15267 4.04348,2.14663 21.58025,4.79051 26.95937,4.06033 6.20828,-0.84275 17.3945,-3.14113 19.76424,-4.06033 8.15969,-3.16504 11.73364,-4.89462 18.92829,-9.13574 6.44302,-3.91966 12.45212,-8.34873 18.74915,-12.41982 10.31538,-7.87637 24.05456,-12.48166 31.5571,-10.59864 2.43807,0.61191 2.01773,0.96783 -5.91136,5.01569 -11.30595,5.77178 -19.89099,11.44885 -31.43767,20.77932 -11.39673,9.2093 -18.98166,16.40912 -18.54017,17.61465 0.17747,0.48464 2.47799,2.61614 5.10527,4.747 2.62727,2.13086 5.25719,3.89232 5.85164,3.91105 0.59445,0.0187 2.32154,-1.58624 3.82148,-3.55278 5.19076,-6.80543 25.54645,-25.89728 30.81072,-28.89998 5.15115,-3.08387 9.36553,-7.53354 14.89781,-10.06125 2.09381,-1.03164 4.40291,-2.41828 5.10527,-3.0751 2.895,-2.70725 11.78044,0.22314 20.24192,6.65775 1.31364,0.99896 4.10809,3.09624 6.20991,4.68728 6.38527,4.83357 11.1923,8.7663 15.67405,12.77809 5.40091,4.87812 9.74438,10.23057 15.22623,14.89781 3.65,3.75332 6.2646,5.69334 7.40412,5.49339 2.3347,-0.40965 9.92849,-8.31924 9.37458,-9.76269 -1.00835,-2.62774 -16.15774,-15.16686 -28.09388,-23.25732 -4.46635,-3.02735 -8.3356,-5.75674 -8.59833,-6.06063 -0.26273,-0.30389 -1.76744,-1.2368 -3.3438,-2.06002 -1.57637,-0.82322 -6.02449,-3.20271 -9.88212,-5.2844 l -7.016,-3.79163 3.0751,-0.5971 c 8.84323,-1.76864 16.19973,0.52321 28.8104,8.98645 5.07611,3.5394 9.79909,7.44104 15.28593,10.3001 14.98529,9.92113 30.4064,14.65834 47.64914,14.65897 13.74035,5e-4 22.50316,-2.44409 35.79655,-9.97169 8.53636,-4.83385 21.68206,-16.1148 20.33149,-17.46537 -0.29897,-0.29896 -3.06786,0.83739 -6.15021,2.50785 -9.93171,5.38242 -17.21819,6.91101 -32.84087,6.89659 -11.63819,-0.10727 -22.51472,-1.90136 -33.19914,-6.83688 -8.71659,-4.28399 -17.96272,-7.60813 -26.98923,-11.13604 -3.42979,-1.61837 -7.13183,-2.16299 -10.74793,-3.22438 -5.55885,-1.7359 -13.44498,-3.17096 -22.98861,-3.22438 -0.71577,-0.004 -1.4453,-0.0118 -2.17944,0 z"
         id="path2906"
         style="fill:#000000" />
    </g>
    <flowRoot
       transform="matrix(1.7859814,-1.0652111,1.0652111,1.7859814,34.087394,426.03489)"
       id="flowRoot3255"
       xml:space="preserve"
       style="font-size:12px;font-style:normal;font-weight:normal;line-height:125%;letter-spacing:0px;word-spacing:0px;fill:#000000;fill-opacity:1;stroke:none;font-family:Bitstream Vera Sans"><flowRegion
         id="flowRegion3257"><rect
           width="171.72595"
           height="96.974632"
           x="38.385796"
           y="62.412689"
           id="rect3259" /></flowRegion><flowPara
         id="flowPara3261"
         style="font-size:72px;font-style:normal;font-variant:normal;font-weight:normal;font-stretch:normal;text-align:start;line-height:125%;writing-mode:lr-tb;text-anchor:start;font-family:Skratch Punk;-inkscape-font-specification:Skratch Punk">BRO</flowPara></flowRoot>    <flowRoot
       transform="matrix(0.91043738,-0.56068789,0.56068789,0.91043738,155.82698,606.78694)"
       id="flowRoot3263"
       xml:space="preserve"
       style="font-size:12px;font-style:normal;font-weight:normal;line-height:125%;letter-spacing:0px;word-spacing:0px;fill:#000000;fill-opacity:1;stroke:none;font-family:Bitstream Vera Sans"><flowRegion
         id="flowRegion3265"><rect
           width="286.88333"
           height="123.23861"
           x="127.27922"
           y="78.575127"
           id="rect3267" /></flowRegion><flowPara
         id="flowPara3269"
         style="font-size:72px;font-style:normal;font-variant:normal;font-weight:normal;font-stretch:normal;text-align:start;line-height:125%;writing-mode:lr-tb;text-anchor:start;font-family:Skratch Punk;-inkscape-font-specification:Skratch Punk">CTF</flowPara></flowRoot>    <g
       transform="matrix(-1,0,0,1,486.46276,110.68346)"
       id="Layer_1">
      <g
         transform="matrix(0.49409167,0.48347373,-0.48347373,0.49409167,196.09467,25.351713)"
         id="g3429">
        <path
           d="m 96.574,160.213 c -22.248,21.349 -40.788,38.809 -56.592,53.209 -15.912,14.327 -31.5,24.876 -37.44,32.327 -5.904,7.2 -0.648,8.244 2.556,11.484 3.132,3.204 8.064,3.96 16.596,8.1 8.532,4.032 22.464,10.44 34.452,16.164 11.916,5.616 20.88,11.988 36.612,17.856 15.732,5.94 38.988,13.608 56.988,17.028 17.856,3.275 32.04,4.176 49.788,2.556 17.748,-1.8 38.268,-3.24 55.728,-12.78 17.28,-9.756 31.644,-25.344 47.664,-44.244 C 318.91,242.977 334.57,220.657 350.59,193.838 265.918,182.642 181.246,171.445 96.574,160.213 z"
           id="path3431"
           style="fill-rule:evenodd" />
        <path
           d="m 101.397,158.485 c -22.248,21.384 -40.788,38.736 -56.592,53.172 -15.912,14.328 -31.5,24.876 -37.44,32.328 -5.904,7.2 -0.648,8.244 2.556,11.484 3.06,3.204 8.064,3.96 16.56,8.1 8.604,4.032 22.5,10.44 34.488,16.164 11.844,5.688 20.844,12.024 36.576,17.892 15.696,5.797 38.916,14.185 57.024,16.992 18.036,2.593 33.228,1.98 50.436,-0.72 17.136,-2.736 35.172,-5.616 51.479,-15.3 16.093,-9.937 30.24,-25.524 44.964,-42.732 14.725,-17.172 28.692,-36.684 42.732,-59.364 -80.926,-12.672 -161.854,-25.344 -242.783,-38.016 z"
           id="path3433"
           style="fill:#ffffff;fill-rule:evenodd" />
        <path
           d="m 109.354,221.054 c 15.228,3.996 28.836,6.408 41.256,7.235 12.348,0.685 21.78,-0.035 32.76,-2.556 10.908,-2.52 21.492,-6.624 32.328,-12.312 -7.775,6.695 -16.956,11.376 -28.08,14.436 -11.268,2.952 -25.092,4.464 -38.268,3.42 -13.176,-1.223 -26.316,-4.5 -39.996,-10.223 z"
           id="path3435"
           style="fill-rule:evenodd" />
        <path
           d="m 113.17,232.537 c 10.116,3.349 21.096,5.437 33.624,6.408 12.492,0.937 27.576,1.944 40.824,-0.864 13.176,-2.951 25.38,-8.388 37.44,-16.596 -13.068,6.912 -26.352,11.592 -40.392,14.04 -14.184,2.269 -31.392,0.972 -43.416,0.432 -12.024,-0.575 -21.24,-1.584 -28.08,-3.42 z"
           id="path3437"
           style="fill-rule:evenodd" />
        <path
           d="m 80.842,232.537 c 7.56,3.925 17.64,7.236 30.636,10.225 12.924,2.88 30.42,7.235 46.8,7.235 16.38,-0.144 34.74,-2.231 50.616,-7.668 15.804,-5.58 29.952,-13.716 43.416,-25.092 -15.156,9.504 -28.872,16.416 -41.724,21.276 -12.96,4.716 -22.644,5.976 -34.884,7.235 -12.384,1.152 -22.356,2.124 -38.268,0 -15.984,-2.267 -34.524,-6.623 -56.592,-13.211 z"
           id="path3439"
           style="fill-rule:evenodd" />
        <path
           d="m 86.782,245.317 c 7.56,3.924 17.64,7.236 30.636,10.224 12.924,2.881 30.42,7.236 46.8,7.236 16.308,-0.144 34.812,-2.231 50.652,-7.668 15.804,-5.58 29.987,-13.716 43.38,-25.092 -15.229,9.504 -28.801,16.416 -41.688,21.276 -12.96,4.644 -22.644,5.976 -34.884,7.199 -12.348,1.152 -22.428,2.124 -38.304,0 -16.092,-2.303 -34.452,-6.551 -56.592,-13.175 z"
           id="path3441"
           style="fill-rule:evenodd" />
        <path
           d="m 81.274,251.689 c 11.196,5.616 23.58,10.116 37.836,13.644 14.184,3.421 30.384,7.272 46.8,7.236 16.272,-0.144 32.184,-0.432 50.652,-7.668 18.54,-7.344 38.017,-19.116 59.544,-35.748 -14.939,10.332 -28.656,18.648 -42.12,25.092 -13.392,6.336 -23.04,10.836 -37.835,13.212 -15.012,2.376 -31.86,3.349 -51.084,0.828 -19.405,-2.699 -40.213,-8.099 -63.793,-16.596 z"
           id="path3443"
           style="fill-rule:evenodd" />
        <path
           d="m 69.358,258.098 c 17.208,9.504 33.516,16.416 49.752,21.275 16.056,4.752 30.492,7.164 46.8,7.236 16.38,-0.036 32.112,-0.504 50.652,-7.668 18.396,-7.488 37.836,-19.224 59.148,-36.18 -15.696,11.304 -30.889,20.195 -46.404,26.819 -15.588,6.66 -29.232,11.053 -45.936,12.744 -16.812,1.513 -34.452,0.576 -53.604,-3.384 -19.116,-4.067 -39.06,-11.014 -60.408,-20.842 z"
           id="path3445"
           style="fill-rule:evenodd" />
        <path
           d="m 97.654,168.134 c -11.124,7.235 -54.036,49.68 -68.616,62.783 -14.472,12.744 -15.12,10.297 -17.784,14.04 -2.736,3.564 -2.664,4.788 1.764,7.849 4.392,3.023 15.768,7.056 24.552,10.439 8.748,3.204 24.768,12.708 27.648,9.36 2.628,-3.528 -14.58,-21.78 -11.484,-29.34 3.096,-7.524 24.912,-9.072 29.772,-15.336 4.608,-6.444 -3.456,-15.948 -1.692,-22.536 1.764,-6.588 9.576,-10.368 12.312,-16.596 2.664,-6.371 14.256,-27.611 3.528,-20.663 z"
           id="path3447"
           style="fill-rule:evenodd" />
        <path
           d="m 88.51,167.882 c 0,0 5.94,4.896 17.424,8.531 11.556,3.637 34.596,9.36 51.048,13.177 16.452,3.779 30.204,6.407 46.8,9.359 16.597,2.916 32.4,5.437 51.912,8.064 19.549,2.664 43.561,6.228 64.261,7.668 20.664,1.439 45.756,2.771 58.716,0.864 12.779,-1.944 13.716,0.071 17.855,-12.349 4.141,-12.6 6.84,-42.552 6.805,-62.1 -0.108,-19.548 -2.736,-41.4 -7.236,-54.036 C 391.559,74.496 381.983,73.128 376.547,66.216 371.11,59.268 371.362,53.076 363.767,45.768 356.063,38.46 342.996,28.956 331.007,22.8 318.983,16.68 305.446,11.928 292.271,9.192 279.131,6.492 268.367,6.708 252.708,6.636 237.012,6.564 215.376,5.772 199.104,8.76 c -16.2,3.024 -32.724,10.656 -42.948,15.732 -10.188,5.076 -12.312,9.324 -17.892,14.472 -5.58,5.148 -10.008,5.004 -15.3,16.164 -5.292,11.304 -10.368,31.68 -16.164,50.652 -5.834,18.973 -18.29,62.102 -18.29,62.102 z"
           id="path3449"
           style="fill-rule:evenodd" />
        <path
           d="m 92.866,165.974 c 0,0 9.9,4.644 21.384,8.28 11.556,3.672 32.4,9.72 48.852,13.535 16.452,3.744 34.92,6.229 51.48,9.145 16.596,2.952 33.3,6.516 52.812,9.18 19.548,2.628 38.664,4.645 59.364,6.12 20.664,1.404 31.104,1.908 44.063,0 12.78,-1.944 16.345,4.14 20.484,-8.316 4.14,-12.6 7.92,-42.84 7.884,-62.388 -0.107,-19.548 -0.756,-40.608 -5.256,-53.244 -4.536,-12.528 -16.812,-15.3 -22.248,-22.248 -5.436,-6.948 -1.979,-8.856 -9.612,-16.128 -7.668,-7.308 -19.403,-15.66 -31.392,-21.816 -12.06,-6.156 -22.212,-12.564 -35.352,-15.3 -13.177,-2.7 -24.517,-2.088 -40.141,-2.16 -15.695,-0.072 -34.812,-2.556 -51.048,0.432 -16.236,3.024 -33.804,10.116 -44.064,15.192 -10.188,5.076 -12.312,9.324 -17.892,14.472 -5.58,5.112 -10.008,4.968 -15.3,16.164 -5.292,11.268 -10.368,31.644 -16.164,50.616 -5.83,19.008 -17.854,58.464 -17.854,58.464 z"
           id="path3451"
           style="fill:#ffffff;fill-rule:evenodd" />
        <path
           d="m 133.186,183.613 c -0.108,-6.804 1.584,-16.308 5.076,-28.908 3.456,-12.708 10.332,-33.804 15.768,-46.368 5.436,-12.672 11.196,-19.908 16.164,-28.512 4.752,-8.604 6.912,-15.336 12.744,-22.968 5.832,-7.92 14.688,-16.596 22.141,-23.4 7.271,-6.876 12.563,-13.104 21.708,-17.028 9.216,-3.924 29.016,-5.256 32.724,-6.372 3.348,-1.296 -6.768,-1.26 -11.88,-0.864 -5.328,0.396 -13.464,1.44 -18.72,2.988 -5.185,1.26 -7.813,2.628 -11.916,5.508 -4.284,2.88 -8.82,8.244 -12.78,11.916 -3.924,3.564 -7.092,6.084 -10.62,9.792 -3.636,3.6 -6.912,7.2 -10.656,12.348 -3.78,5.148 -6.552,9.216 -11.916,18.72 -5.58,9.54 -15.588,26.1 -20.844,37.872 -5.328,11.556 -7.056,18.9 -10.62,31.464 -3.636,12.6 -7.056,26.749 -10.656,43.417 1.403,0.107 2.843,0.252 4.283,0.395 z"
           id="path3453"
           style="fill-rule:evenodd" />
        <path
           d="m 276.573,9.301 c 14.292,10.116 25.345,19.152 33.589,27.54 8.1,8.316 11.483,11.34 15.3,22.14 3.744,10.728 6.948,26.892 7.235,41.688 0.217,14.58 -2.268,26.928 -5.939,45.936 -3.816,19.08 -9.252,41.256 -16.596,67.644 h 4.68 c 2.268,-10.871 4.824,-22.176 7.668,-34.451 2.844,-12.385 7.128,-25.236 9.36,-38.7 2.124,-13.644 3.203,-30.6 3.384,-41.724 0,-11.124 -0.864,-15.264 -2.988,-24.228 -2.232,-9.18 -4.14,-20.412 -9.756,-29.376 -5.796,-8.964 -16.056,-17.676 -23.832,-23.796 -7.704,-6.12 -14.976,-10.296 -22.105,-12.673 z"
           id="path3455"
           style="fill-rule:evenodd" />
        <path
           d="m 199.534,41.954 c 5.508,-6.624 13.068,-12.204 17.676,-15.624 4.536,-3.384 3.852,-2.988 9.611,-4.788 5.688,-1.98 17.353,-5.508 24.444,-6.552 6.984,-1.116 12.744,0.144 17.424,0.432 4.536,0.216 7.128,-0.324 10.404,1.008 3.168,1.224 5.976,4.428 9.252,6.84 3.276,2.268 6.768,4.572 10.332,7.2 3.528,2.592 7.488,4.5 10.62,8.496 3.023,3.852 11.88,13.212 7.668,14.904 -4.428,1.476 -26.928,-6.192 -33.624,-5.112 -6.696,1.188 -1.692,13.392 -6.372,11.916 -4.896,-1.764 -13.284,-20.664 -22.104,-21.708 -8.819,-1.008 -22.283,9.936 -30.239,15.336 -7.992,5.256 -13.896,15.876 -17.424,16.164 -3.564,0 -0.217,-14.508 -3.96,-15.336 -3.924,-0.72 -18.36,12.744 -19.008,10.656 -0.54,-2.341 9.648,-17.137 15.3,-23.832 z"
           id="path3457"
           style="fill-rule:evenodd" />
        <path
           d="m 307.533,20.678 c 9.288,2.736 18.181,6.768 27.072,12.636 8.928,5.796 24.912,19.368 25.74,21.816 0.504,2.196 -19.224,-9.612 -22.104,-8.064 -2.845,1.512 5.939,15.336 5.111,17.028 -0.936,1.584 -4.392,-0.72 -10.512,-7.2 -3.024,-5.148 -6.516,-10.08 -10.332,-14.94 -3.888,-4.968 -8.1,-9.648 -12.78,-14.04 -4.859,-4.464 -14.868,-10.656 -15.3,-11.916 -0.359,-1.225 3.962,0.288 13.105,4.68 z"
           id="path3459"
           style="fill-rule:evenodd" />
        <path
           d="m 247.737,53.293 c -0.899,0.72 -1.188,1.224 -0.863,2.34 0.252,1.116 0.504,3.636 2.556,4.5 1.98,0.756 7.02,0.828 9.288,0.36 2.124,-0.612 3.672,-1.872 3.672,-3.24 -0.144,-1.404 -2.34,-3.744 -4.068,-4.788 -1.836,-1.188 -4.68,-1.8 -6.443,-1.692 -1.945,0.073 -3.277,1.657 -4.142,2.52 z"
           id="path3461"
           style="fill-rule:evenodd" />
        <path
           d="m 251.949,55.202 c -0.287,0.36 0.108,1.332 0.612,1.8 0.324,0.288 1.08,0.288 1.729,0.288 0.575,-0.144 2.016,-0.288 2.088,-0.72 0,-0.504 -1.044,-1.512 -1.765,-1.764 -0.863,-0.325 -2.267,0.035 -2.664,0.396 z"
           id="path3463"
           style="fill:#ffffff;fill-rule:evenodd" />
        <path
           d="m 161.77,35.005 c -1.008,0.36 -1.548,0.648 -2.304,1.836 -0.9,1.044 -2.952,3.528 -2.844,4.932 0.072,1.404 1.728,3.06 3.024,3.42 1.188,0.216 2.916,-0.54 4.068,-1.728 1.152,-1.44 2.088,-4.032 2.52,-5.688 0.216,-1.584 -0.18,-3.276 -0.9,-3.672 -0.9,-0.576 -2.556,0.468 -3.564,0.9 z"
           id="path3465"
           style="fill-rule:evenodd" />
        <path
           d="m 161.662,38.138 c -0.468,0.252 -1.224,1.224 -1.296,1.8 -0.144,0.432 0.036,0.72 0.396,0.864 0.216,0.108 0.936,0.396 1.332,0.036 0.36,-0.432 0.828,-1.764 0.864,-2.196 -0.145,-0.504 -0.9,-0.721 -1.296,-0.504 z"
           id="path3467"
           style="fill:#ffffff;fill-rule:evenodd" />
        <path
           d="m 361.569,73.633 c 0.108,1.008 0.181,1.548 1.044,2.736 0.792,1.116 2.376,3.78 3.78,4.248 1.44,0.396 3.349,-0.864 4.176,-1.836 0.576,-1.116 0.504,-2.952 -0.359,-4.392 -0.937,-1.512 -3.276,-3.456 -4.645,-4.176 -1.476,-0.684 -3.096,-0.9 -3.744,-0.252 -0.647,0.612 -0.504,2.484 -0.252,3.672 z"
           id="path3469"
           style="fill-rule:evenodd" />
        <path
           d="m 364.521,74.677 c -0.036,0.468 0.9,1.44 1.296,1.8 0.396,0.252 0.612,0.072 0.937,-0.108 0.18,-0.324 0.611,-0.792 0.468,-1.26 -0.324,-0.576 -1.404,-1.404 -1.836,-1.512 -0.54,-0.035 -0.972,0.468 -0.865,1.08 z"
           id="path3471"
           style="fill:#ffffff;fill-rule:evenodd" />
        <path
           d="m 262.102,6.746 c 0,0 0.972,-4.572 3.384,-5.688 2.448,-1.116 7.416,-1.404 10.98,-0.9 3.528,0.504 8.532,2.304 10.116,3.924 1.512,1.62 0.432,4.392 -0.9,5.652 -1.404,1.224 -3.276,2.16 -7.236,1.692 -3.997,-0.54 -16.344,-4.68 -16.344,-4.68 z"
           id="path3473"
           style="fill-rule:evenodd" />
        <path
           d="m 264.766,2.498 -1.944,3.528 c 1.729,0.972 4.177,1.764 7.2,2.664 3.061,0.792 8.208,2.34 10.872,2.304 2.521,-0.18 4.896,-2.304 4.356,-2.916 -0.648,-0.612 -4.933,-0.756 -7.597,-1.008 -2.735,-0.468 -6.191,-0.576 -8.279,-1.296 -2.16,-0.793 -3.744,-1.836 -4.608,-3.276 z"
           id="path3475"
           style="fill:#ffffff;fill-rule:evenodd" />
        <path
           d="m 216.346,11.498 c -1.476,-1.008 -13.752,2.016 -21.816,4.356 -8.064,2.232 -23.4,7.056 -25.74,9.18 -2.304,1.908 11.34,-0.36 11.772,3.06 0.18,3.42 -9.792,14.508 -10.044,17.424 -0.324,2.7 5.04,2.052 8.316,-0.432 3.168,-2.556 6.984,-10.548 10.908,-14.4 3.708,-3.888 7.776,-5.544 12.204,-8.712 4.464,-3.349 15.516,-9.432 14.4,-10.476 z"
           id="path3477"
           style="fill-rule:evenodd;stroke:#000000;stroke-width:0.036;stroke-miterlimit:10" />
      </g>
    </g>
  </g>
</svg>
