<?xml version="1.0" encoding="UTF-8" standalone="no"?>
<!-- Created with Inkscape (http://www.inkscape.org/) -->
<svg xmlns:dc="http://purl.org/dc/elements/1.1/" xmlns:cc="http://creativecommons.org/ns#" xmlns:rdf="http://www.w3.org/1999/02/22-rdf-syntax-ns#" xmlns:svg="http://www.w3.org/2000/svg" xmlns="http://www.w3.org/2000/svg" xmlns:sodipodi="http://sodipodi.sourceforge.net/DTD/sodipodi-0.dtd" xmlns:inkscape="http://www.inkscape.org/namespaces/inkscape" width="64px" height="64px" id="svg3065" version="1.1" inkscape:version="0.47 r22583" sodipodi:docname="New document 2">
  <defs id="defs3067">
    <inkscape:perspective sodipodi:type="inkscape:persp3d" inkscape:vp_x="0 : 32 : 1" inkscape:vp_y="0 : 1000 : 0" inkscape:vp_z="64 : 32 : 1" inkscape:persp3d-origin="32 : 21.333333 : 1" id="perspective3073"/>
    <inkscape:perspective id="perspective2941" inkscape:persp3d-origin="0.5 : 0.33333333 : 1" inkscape:vp_z="1 : 0.5 : 1" inkscape:vp_y="0 : 1000 : 0" inkscape:vp_x="0 : 0.5 : 1" sodipodi:type="inkscape:persp3d"/>
    <filter color-interpolation-filters="sRGB" inkscape:collect="always" id="filter4286">
      <feGaussianBlur inkscape:collect="always" stdDeviation="1.5971682" id="feGaussianBlur4288"/>
    </filter>
    <filter id="filter3380" inkscape:label="Darken edges" inkscape:menu="Shadows and Glows" inkscape:menu-tooltip="Darken the edges with an inner blur" color-interpolation-filters="sRGB">
      <feGaussianBlur id="feGaussianBlur3382" result="result6" stdDeviation="1.5"/>
      <feComposite id="feComposite3384" in2="result6" operator="atop" in="SourceGraphic" result="result8"/>
      <feComposite id="feComposite3386" in2="SourceAlpha" in="result8" operator="atop" result="result9"/>
    </filter>
    <filter id="filter3388" inkscape:label="Darken edges" inkscape:menu="Shadows and Glows" inkscape:menu-tooltip="Darken the edges with an inner blur" color-interpolation-filters="sRGB">
      <feGaussianBlur id="feGaussianBlur3390" result="result6" stdDeviation="1.5"/>
      <feComposite id="feComposite3392" in2="result6" operator="atop" in="SourceGraphic" result="result8"/>
      <feComposite id="feComposite3394" in2="SourceAlpha" in="result8" operator="atop" result="result9"/>
    </filter>
  </defs>
  <sodipodi:namedview id="base" pagecolor="#ffffff" bordercolor="#666666" borderopacity="1.0" inkscape:pageopacity="0.0" inkscape:pageshadow="2" inkscape:zoom="1" inkscape:cx="52.592993" inkscape:cy="25.84823" inkscape:current-layer="layer1" showgrid="true" inkscape:document-units="px" inkscape:grid-bbox="true" inkscape:window-width="1280" inkscape:window-height="712" inkscape:window-x="-4" inkscape:window-y="-4" inkscape:window-maximized="1"/>
  <metadata id="metadata3070">
    <rdf:RDF>
      <cc:Work rdf:about="">
        <dc:format>image/svg+xml</dc:format>
        <dc:type rdf:resource="http://purl.org/dc/dcmitype/StillImage"/>
        <dc:title/>
      </cc:Work>
    </rdf:RDF>
  </metadata>
  <g id="layer1" inkscape:label="Layer 1" inkscape:groupmode="layer">
    <g id="g3177" transform="matrix(0.20478108,0,0,0.21959076,-60.15441,-10.285347)" style="opacity:0.84604935000000003;fill:#016738;fill-opacity:1;filter:url(#filter3380)">
      <path sodipodi:nodetypes="ccccc" id="path2161" d="m 322.19746,206.49353 c -6.27355,-25.34942 -25.90355,-33.02835 -5.90822,-63.97428 -2.69304,16.63225 4.94278,22.4594 6.30572,41.86263 6.60697,-12.09742 19.73134,-15.66468 25.56093,-24.08121 -3.57651,23.91674 -10.93321,26.78313 -25.95843,46.19286 z" style="fill:#016738;fill-opacity:1;fill-rule:evenodd;stroke:#000000;stroke-width:0.09756348;stroke-linecap:butt;stroke-linejoin:miter;stroke-miterlimit:4;stroke-opacity:1;stroke-dasharray:none"/>
      <path sodipodi:nodetypes="cccccc" id="path4107" d="m 324.9832,173.87939 c -1.52881,-19.59882 -9.11304,-35.41587 0.92478,-51.19917 3.00789,-4.76477 7.27873,-8.43241 15.09219,-14.71915 -6.47966,23.54011 -3.88897,28.03968 -5.50498,43.60228 11.12098,-11.88624 19.56729,-12.06711 26.49889,-17.96561 -6.63636,20.38235 -18.54423,27.36754 -37.01088,40.28165 z" style="fill:#016738;fill-opacity:1;fill-rule:evenodd;stroke:#000000;stroke-width:0.09756349;stroke-linecap:butt;stroke-linejoin:miter;stroke-miterlimit:4;stroke-opacity:1;stroke-dasharray:none"/>
      <path sodipodi:nodetypes="cccccc" id="path5096" d="m 339.16244,143.73543 c 6.79923,-21.89666 0.32106,-32.26987 10.6998,-46.257532 8.01208,-8.680157 11.0979,-9.233053 16.30017,-11.847816 -6.3104,12.345005 -9.00581,19.123038 -13.2625,34.087108 8.99522,-4.36433 14.05346,-3.11422 26.41858,-3.65694 -9.23458,10.91411 -16.72665,14.12455 -40.15605,27.67518 z" style="fill:#016738;fill-opacity:1;fill-rule:evenodd;stroke:#000000;stroke-width:0.09550145;stroke-linecap:butt;stroke-linejoin:miter;stroke-miterlimit:4;stroke-opacity:1;stroke-dasharray:none"/>
      <path sodipodi:nodetypes="cccscsc" id="path6067" d="m 360.5462,112.26792 c 13.30115,-17.988645 5.49794,-38.951059 43.46122,-45.832978 -15.28986,11.110668 -20.33706,18.297994 -27.46557,32.875769 4.68944,-0.911661 7.19267,-0.572022 10.82507,-0.494816 6.01182,0.127779 12.30362,1.339235 17.28571,2.428575 -4.09855,3.05223 -9.07942,6.5269 -15.2619,7.69047 -11.5361,2.17115 -19.40948,-0.25919 -28.84453,3.33298 z" style="fill:#016738;fill-opacity:1;fill-rule:evenodd;stroke:#000000;stroke-width:0.09756349;stroke-linecap:butt;stroke-linejoin:miter;stroke-miterlimit:4;stroke-opacity:1;stroke-dasharray:none"/>
      <path sodipodi:nodetypes="ccccc" id="path8007" d="m 384.85802,94.126526 c 13.59597,-15.457117 15.45158,-30.63131 39.80211,-29.362327 -9.91047,3.144029 -6.79004,11.189796 -20.4848,20.180946 18.90042,-2.116897 16.67943,2.470147 32.56269,0.919006 -23.48234,16.256199 -27.94209,7.242035 -51.88,8.262375 z" style="fill:#016738;fill-opacity:1;fill-rule:evenodd;stroke:#000000;stroke-width:0.09756349;stroke-linecap:butt;stroke-linejoin:miter;stroke-miterlimit:4;stroke-opacity:1;stroke-dasharray:none"/>
      <path sodipodi:nodetypes="cccccc" id="path9947" d="m 331.89217,241.92374 c -18.19095,-22.70271 -28.8709,-29.91781 -25.39359,-52.23857 6.74434,10.85465 11.3273,14.4126 15.72625,24.45803 7.04118,-13.41578 13.84317,-16.1348 18.45107,-25.45133 3.1787,6.49311 1.77444,16.72418 -0.88744,25.76282 -4.20462,8.83496 -6.17108,17.98811 -7.89629,27.46905 z" style="fill:#016738;fill-opacity:1;fill-rule:evenodd;stroke:#000000;stroke-width:0.09756349;stroke-linecap:butt;stroke-linejoin:miter;stroke-miterlimit:4;stroke-opacity:1;stroke-dasharray:none"/>
      <path sodipodi:nodetypes="cccccc" id="path11887" d="m 347.89699,268.38147 c -8.9502,-4.02629 -19.3983,-8.64153 -30.47077,-17.97348 -8.87245,-8.31309 -13.05745,-20.82033 -12.45237,-32.7619 10.3012,11.52611 20.70043,20.71784 30.39932,32.52517 -1.74542,-13.84391 3.01979,-22.78751 6.62448,-30.62041 7.52339,6.49153 4.3777,27.21446 5.89934,48.83062 z" style="fill:#016738;fill-opacity:1;fill-rule:evenodd;stroke:#000000;stroke-width:0.09756349;stroke-linecap:butt;stroke-linejoin:miter;stroke-miterlimit:4;stroke-opacity:1;stroke-dasharray:none"/>
      <path sodipodi:nodetypes="ccccc" id="path13827" d="m 365.87272,289.06693 c -16.53469,-10.31368 -44.22521,-5.19452 -47.54275,-33.40418 10.12785,10.99451 18.31816,10.16486 33.92106,17.70203 -0.47367,-12.02235 2.34898,-14.87418 1.64848,-27.33688 9.3225,7.06453 9.60884,25.00212 11.97321,43.03903 z" style="fill:#016738;fill-opacity:1;fill-rule:evenodd;stroke:#000000;stroke-width:0.09756349;stroke-linecap:butt;stroke-linejoin:miter;stroke-miterlimit:4;stroke-opacity:1;stroke-dasharray:none"/>
      <path sodipodi:nodetypes="ccscccc" id="path15767" d="m 387.51839,303.89353 -16.99999,0.40476 c -3.64379,-0.33776 -7.82772,-0.018 -15.38096,-3.23809 -7.85062,-3.3469 -12.52531,-10.10523 -17.40476,-15.78572 14.36533,1.51087 22.89621,7.15144 33.59524,8.90476 l -3.76191,-22.35714 c 14.44557,9.62349 12.2425,23.75668 19.95238,32.07143 z" style="fill:#016738;fill-opacity:1;fill-rule:evenodd;stroke:#000000;stroke-width:0.09756349;stroke-linecap:butt;stroke-linejoin:miter;stroke-miterlimit:4;stroke-opacity:1;stroke-dasharray:none"/>
      <path sodipodi:nodetypes="cccsccscc" id="path17707" d="m 415.49254,308.79625 c -4.25256,1.52725 -2.41876,0.38597 -14.3338,4.78665 -3.37459,0.80953 -6.41227,2.0943 -10.76143,2.90383 -3.37302,0.46768 -6.76166,0.68686 -10.11905,0 -7.55156,-1.54491 -9.41143,-4.66302 -12.95238,-7.28572 l 27.5238,-0.80952 c 0,0 -3.05775,-2.63847 -6.07142,-7.69048 -2.39888,-4.0214 -4.47695,-8.63492 -5.26191,-12.95238 11.96894,3.74036 21.10429,15.30033 31.97619,21.04762 z" style="fill:#016738;fill-opacity:1;fill-rule:evenodd;stroke:#000000;stroke-width:0.09756349;stroke-linecap:butt;stroke-linejoin:miter;stroke-miterlimit:4;stroke-opacity:1;stroke-dasharray:none"/>
      <path sodipodi:nodetypes="ccccsccccs" id="path19647" d="m 438.34795,330.5038 c -1.8624,0.0143 3.20151,-2.73117 4.52566,-5.4829 4.51717,-12.08175 -7.73826,-3.56907 -12.14286,-1.21428 -8.52266,4.14196 -17.40738,5.08611 -26.71428,4.04762 -6.6719,-0.87423 -13.59081,-4.84064 -15.5275,-7.10077 -1.14798,-1.3397 8.28803,0.26635 16.22653,-1.36201 8.34923,-0.9639 14.1322,-4.25166 25.92662,-8.96815 4.54033,-1.63876 10.91187,-1.54325 14.2553,-0.3786 5.37839,1.81956 7.78722,8.02601 5.2619,12.95238 -2.73103,4.61819 -7.48636,7.47362 -11.81137,7.50671 z" style="fill:#016738;fill-opacity:1;fill-rule:evenodd;stroke:#000000;stroke-width:0.09756349;stroke-linecap:butt;stroke-linejoin:miter;stroke-miterlimit:4;stroke-opacity:1;stroke-dasharray:none"/>
      <path style="fill:#016738;fill-opacity:1;fill-rule:evenodd;stroke:#000000;stroke-width:0.09756348;stroke-linecap:butt;stroke-linejoin:miter;stroke-miterlimit:4;stroke-opacity:1;stroke-dasharray:none" d="M 511.71357,94.851513 C 500.1339,77.375215 497.60619,63.5301 473.25566,64.744141 c 9.91047,3.007907 6.79004,10.705327 20.4848,19.3072 -18.90042,-2.025245 -16.67943,2.3632 -32.56269,0.879217 18.10553,18.912892 26.59789,8.944791 50.5358,9.920955 z" id="path10983" sodipodi:nodetypes="ccccc"/>
    </g>
    <g style="opacity:0.84604935000000003;fill:#04693a;fill-opacity:1;filter:url(#filter3388)" transform="matrix(-0.20760103,0,0,0.21400831,126.09094,-8.735152)" id="g10958">
      <path style="fill:#04693a;fill-opacity:1;fill-rule:evenodd;stroke:#000000;stroke-width:0.09815427;stroke-linecap:butt;stroke-linejoin:miter;stroke-miterlimit:4;stroke-opacity:1;stroke-dasharray:none" d="m 322.19746,206.49353 c -6.27355,-25.34942 -25.90355,-33.02835 -5.90822,-63.97428 -2.69304,16.63225 4.94278,22.4594 6.30572,41.86263 6.60697,-12.09742 19.73134,-15.66468 25.56093,-24.08121 -3.57651,23.91674 -10.93321,26.78313 -25.95843,46.19286 z" id="path10960" sodipodi:nodetypes="ccccc"/>
      <path style="fill:#04693a;fill-opacity:1;fill-rule:evenodd;stroke:#000000;stroke-width:0.09815428;stroke-linecap:butt;stroke-linejoin:miter;stroke-miterlimit:4;stroke-opacity:1;stroke-dasharray:none" d="m 324.9832,173.87939 c -1.52881,-19.59882 -9.11304,-35.41587 0.92478,-51.19917 3.00789,-4.76477 7.27873,-8.43241 15.09219,-14.71915 -6.47966,23.54011 -3.88897,28.03968 -5.50498,43.60228 11.12098,-11.88624 19.56729,-12.06711 26.49889,-17.96561 -6.63636,20.38235 -18.54423,27.36754 -37.01088,40.28165 z" id="path10962" sodipodi:nodetypes="cccccc"/>
      <path style="fill:#04693a;fill-opacity:1;fill-rule:evenodd;stroke:#000000;stroke-width:0.09607974;stroke-linecap:butt;stroke-linejoin:miter;stroke-miterlimit:4;stroke-opacity:1;stroke-dasharray:none" d="m 339.16244,143.73543 c 6.79923,-21.89666 0.32106,-32.26987 10.6998,-46.257532 8.01208,-8.680157 11.0979,-9.233053 16.30017,-11.847816 -6.3104,12.345005 -9.00581,19.123038 -13.2625,34.087108 8.99522,-4.36433 14.05346,-3.11422 26.41858,-3.65694 -9.23458,10.91411 -16.72665,14.12455 -40.15605,27.67518 z" id="path10964" sodipodi:nodetypes="cccccc"/>
      <path style="fill:#04693a;fill-opacity:1;fill-rule:evenodd;stroke:#000000;stroke-width:0.09815428;stroke-linecap:butt;stroke-linejoin:miter;stroke-miterlimit:4;stroke-opacity:1;stroke-dasharray:none" d="m 360.5462,112.26792 c 13.30115,-17.988645 7.64224,-44.468126 45.60552,-51.350045 -15.28986,11.110668 -22.48136,23.815061 -29.60987,38.392836 4.68944,-0.911661 7.19267,-0.572022 10.82507,-0.494816 6.01182,0.127779 12.30362,1.339235 17.28571,2.428575 -4.09855,3.05223 -9.07942,6.5269 -15.2619,7.69047 -11.5361,2.17115 -19.40948,-0.25919 -28.84453,3.33298 z" id="path10966" sodipodi:nodetypes="cccscsc"/>
      <path style="fill:#04693a;fill-opacity:1;fill-rule:evenodd;stroke:#000000;stroke-width:0.09815428;stroke-linecap:butt;stroke-linejoin:miter;stroke-miterlimit:4;stroke-opacity:1;stroke-dasharray:none" d="m 331.89217,241.92374 c -18.19095,-22.70271 -28.8709,-29.91781 -25.39359,-52.23857 6.74434,10.85465 11.3273,14.4126 15.72625,24.45803 7.04118,-13.41578 13.84317,-16.1348 18.45107,-25.45133 3.1787,6.49311 1.77444,16.72418 -0.88744,25.76282 -4.20462,8.83496 -6.17108,17.98811 -7.89629,27.46905 z" id="path10970" sodipodi:nodetypes="cccccc"/>
      <path style="fill:#04693a;fill-opacity:1;fill-rule:evenodd;stroke:#000000;stroke-width:0.09815428;stroke-linecap:butt;stroke-linejoin:miter;stroke-miterlimit:4;stroke-opacity:1;stroke-dasharray:none" d="m 347.89699,268.38147 c -8.9502,-4.02629 -19.3983,-8.64153 -30.47077,-17.97348 -8.87245,-8.31309 -13.05745,-20.82033 -12.45237,-32.7619 10.3012,11.52611 20.70043,20.71784 30.39932,32.52517 -1.74542,-13.84391 3.01979,-22.78751 6.62448,-30.62041 7.52339,6.49153 4.3777,27.21446 5.89934,48.83062 z" id="path10972" sodipodi:nodetypes="cccccc"/>
      <path style="fill:#04693a;fill-opacity:1;fill-rule:evenodd;stroke:#000000;stroke-width:0.09815428;stroke-linecap:butt;stroke-linejoin:miter;stroke-miterlimit:4;stroke-opacity:1;stroke-dasharray:none" d="m 365.87272,289.06693 c -16.53469,-10.31368 -44.22521,-5.19452 -47.54275,-33.40418 10.12785,10.99451 18.31816,10.16486 33.92106,17.70203 -0.47367,-12.02235 2.34898,-14.87418 1.64848,-27.33688 9.3225,7.06453 9.60884,25.00212 11.97321,43.03903 z" id="path10974" sodipodi:nodetypes="ccccc"/>
      <path style="fill:#04693a;fill-opacity:1;fill-rule:evenodd;stroke:#000000;stroke-width:0.09815428;stroke-linecap:butt;stroke-linejoin:miter;stroke-miterlimit:4;stroke-opacity:1;stroke-dasharray:none" d="m 388.94793,305.2728 -18.42953,-0.97451 c -3.64379,-0.33776 -7.82772,-0.018 -15.38096,-3.23809 -7.85062,-3.3469 -12.52531,-10.10523 -17.40476,-15.78572 14.36533,1.51087 22.89621,7.15144 33.59524,8.90476 l -3.76191,-22.35714 c 14.44557,9.62349 13.67204,25.13595 21.38192,33.4507 z" id="path10976" sodipodi:nodetypes="ccscccc"/>
      <path style="fill:#04693a;fill-opacity:1;fill-rule:evenodd;stroke:#000000;stroke-width:0.09815428;stroke-linecap:butt;stroke-linejoin:miter;stroke-miterlimit:4;stroke-opacity:1;stroke-dasharray:none" d="m 415.49254,308.79625 c -4.25256,1.52725 -2.41876,0.38597 -14.3338,4.78665 -3.37459,0.80953 -6.41227,2.0943 -10.76143,2.90383 -3.37302,0.46768 -6.76166,0.68686 -10.11905,0 -7.55156,-1.54491 -9.41143,-4.66302 -12.95238,-7.28572 l 27.5238,-0.80952 c 0,0 -3.05775,-2.63847 -6.07142,-7.69048 -2.39888,-4.0214 -4.47695,-8.63492 -5.26191,-12.95238 11.96894,3.74036 21.10429,15.30033 31.97619,21.04762 z" id="path10978" sodipodi:nodetypes="cccsccscc"/>
      <path style="fill:#04693a;fill-opacity:1;fill-rule:evenodd;stroke:#000000;stroke-width:0.09815428;stroke-linecap:butt;stroke-linejoin:miter;stroke-miterlimit:4;stroke-opacity:1;stroke-dasharray:none" d="m 438.34795,330.5038 c -1.8624,0.0143 3.20151,-2.73117 4.52566,-5.4829 4.51717,-12.08175 -7.73826,-3.56907 -12.14286,-1.21428 -8.52266,4.14196 -17.40738,5.08611 -26.71428,4.04762 -6.6719,-0.87423 -13.59081,-4.84064 -15.5275,-7.10077 -1.14798,-1.3397 8.28803,0.26635 16.22653,-1.36201 8.34923,-0.9639 14.1322,-4.25166 25.92662,-8.96815 4.54033,-1.63876 10.91187,-1.54325 14.2553,-0.3786 5.37839,1.81956 7.78722,8.02601 5.2619,12.95238 -2.73103,4.61819 -7.48636,7.47362 -11.81137,7.50671 z" id="path10980" sodipodi:nodetypes="ccccsccccs"/>
    </g>
  </g>
</svg>